<svg width="120" height="120" viewBox="0 0 120 120" fill="none" xmlns="http://www.w3.org/2000/svg">
<rect width="120" height="120" rx="13.3333" fill="white"/>
<path d="M56.2764 24.1943C60.7002 24.1943 65.0615 24.7071 69.3574 25.7334C73.6565 26.6972 77.4613 28.147 80.7646 30.0908L81.3691 30.4463L74.9756 45.8594L74.1904 45.4346C67.9635 42.0709 61.9636 40.4102 56.1816 40.4102C52.4994 40.4102 49.9797 40.9793 48.4756 41.9824L48.458 41.9941C46.9474 42.9457 46.2744 44.1293 46.2744 45.5801C46.2745 46.3001 46.4763 46.9004 46.8682 47.415C47.2683 47.9403 47.9013 48.4204 48.8262 48.8252C50.7691 49.6754 53.9561 50.5781 58.4336 51.5244L58.4346 51.5254C63.5058 52.6034 67.7158 53.7812 71.0527 55.0635C74.5268 56.3093 77.5119 58.3435 79.999 61.1543L80.2422 61.4229C82.7155 64.2371 83.9111 67.9961 83.9111 72.6084C83.9111 76.7508 82.7579 80.5139 80.4521 83.875C78.1377 87.2487 74.6882 89.9265 70.1602 91.9326L70.1504 91.9365C65.5999 93.8874 60.1135 94.8467 53.7168 94.8467C48.2776 94.8467 42.9948 94.1748 37.8701 92.8291C32.7523 91.4852 28.5486 89.6816 25.2881 87.3984L24.7441 87.0176L31.5625 71.6973L32.3555 72.2207C35.2528 74.1324 38.6257 75.6822 42.4814 76.8643C46.3296 78.0439 50.1057 78.6308 53.8115 78.6309C57.3728 78.6309 59.9238 78.181 61.5566 77.3643C62.3616 76.9616 62.9175 76.4833 63.2734 75.9492C63.626 75.4202 63.8134 74.7911 63.8135 74.0312C63.8135 73.2404 63.5996 72.591 63.1924 72.0479C62.7783 71.4957 62.1263 71.003 61.1758 70.5996L61.1621 70.5938L61.1484 70.5869C59.2115 69.6787 55.9998 68.7141 51.4619 67.7051C46.4481 66.6258 42.2397 65.4798 38.8457 64.2627L38.833 64.2578C35.3589 62.9464 32.3741 60.8781 29.8867 58.0625C27.3226 55.16 26.0821 51.2849 26.082 46.5283C26.082 42.3253 27.2336 38.5295 29.541 35.166C31.8546 31.7301 35.2733 29.051 39.7441 27.1064L39.748 27.1045C44.2994 25.1533 49.8178 24.1944 56.2764 24.1943ZM44.8008 93.4111C44.8395 93.4167 44.8783 93.4213 44.917 93.4268C44.5536 93.3752 44.1909 93.3217 43.8291 93.2637L44.8008 93.4111ZM69.9951 91.1221C70.2108 91.0252 70.4244 90.9281 70.6348 90.8281C70.4244 90.9281 70.2108 91.0252 69.9951 91.1221ZM70.8057 90.7441C71.0052 90.6479 71.2028 90.5512 71.3975 90.4521C71.2028 90.5512 71.0052 90.6479 70.8057 90.7441ZM71.6865 90.3018C71.838 90.2226 71.9883 90.1433 72.1367 90.0625C71.9883 90.1433 71.838 90.2226 71.6865 90.3018ZM72.4453 89.8896C72.5821 89.813 72.7184 89.7373 72.8525 89.6592C72.7184 89.7373 72.5821 89.813 72.4453 89.8896ZM73.2002 89.4512C73.3076 89.3864 73.4149 89.3226 73.5205 89.2568C73.4149 89.3226 73.3076 89.3864 73.2002 89.4512ZM73.8994 89.0146C74.0031 88.9476 74.1061 88.8805 74.208 88.8125C74.1061 88.8805 74.0031 88.9476 73.8994 89.0146ZM74.5127 88.6055C74.6364 88.5202 74.7589 88.4345 74.8799 88.3477C74.7589 88.4345 74.6364 88.5202 74.5127 88.6055ZM75.1338 88.1621C75.2635 88.0664 75.392 87.9705 75.5186 87.873C75.392 87.9705 75.2635 88.0664 75.1338 88.1621ZM75.7412 87.6992C75.8616 87.6041 75.9803 87.508 76.0977 87.4111C75.9803 87.508 75.8616 87.6041 75.7412 87.6992ZM76.3604 87.1914C76.4638 87.1033 76.5649 87.0133 76.666 86.9238C76.5649 87.0133 76.4638 87.1033 76.3604 87.1914ZM76.9082 86.708C77.0123 86.6129 77.1144 86.5165 77.2158 86.4199C77.1144 86.5165 77.0123 86.6129 76.9082 86.708ZM77.457 86.1885C77.5647 86.0826 77.6698 85.9749 77.7744 85.8672C77.6698 85.9749 77.5647 86.0826 77.457 86.1885ZM77.9541 85.6826C78.0678 85.5624 78.1781 85.4398 78.2881 85.3174C78.1781 85.4398 78.0678 85.5624 77.9541 85.6826ZM78.4551 85.1328C78.5623 85.0103 78.666 84.8854 78.7695 84.7607C78.666 84.8854 78.5623 85.0103 78.4551 85.1328ZM80.5537 82.21C80.3148 82.6187 80.0606 83.0227 79.7881 83.4199C80.0606 83.0227 80.3148 82.6187 80.5537 82.21ZM80.624 82.0859C80.7158 81.9262 80.8059 81.766 80.8926 81.6045C80.8059 81.766 80.7158 81.9262 80.624 82.0859ZM80.9912 81.415C81.0635 81.2767 81.1355 81.1386 81.2041 80.999C81.1355 81.1386 81.0635 81.2767 80.9912 81.415ZM81.3174 80.7607C81.3811 80.6261 81.4436 80.4912 81.5039 80.3555C81.4436 80.4912 81.3811 80.6261 81.3174 80.7607ZM81.5947 80.1445C81.6534 80.0079 81.7114 79.8712 81.7666 79.7334C81.7113 79.8712 81.6534 80.0079 81.5947 80.1445ZM81.8691 79.4697C81.9174 79.3439 81.9644 79.2177 82.0098 79.0908C81.9644 79.2177 81.9174 79.3439 81.8691 79.4697ZM54.6797 79.4258C54.3963 79.4318 54.107 79.4365 53.8115 79.4365C54.1069 79.4365 54.3964 79.4318 54.6797 79.4258ZM82.0996 78.8369C82.1489 78.6923 82.1965 78.5472 82.2422 78.4014C82.1965 78.5472 82.149 78.6923 82.0996 78.8369ZM43.7119 78.0566C43.8375 78.0905 43.9634 78.1217 44.0889 78.1543C43.9481 78.1177 43.8069 78.0821 43.666 78.0439L43.7119 78.0566ZM82.3184 78.1494C82.3545 78.0281 82.3892 77.9064 82.4229 77.7842C82.3892 77.9064 82.3545 78.0281 82.3184 78.1494ZM82.499 77.499C82.5326 77.3689 82.565 77.2385 82.5957 77.1074C82.5649 77.2385 82.5326 77.3689 82.499 77.499ZM82.665 76.8047C82.6879 76.6993 82.7084 76.5933 82.7295 76.4873C82.7084 76.5933 82.6879 76.6993 82.665 76.8047ZM82.7969 76.1367C82.8179 76.0196 82.8366 75.902 82.8555 75.7842C82.8366 75.902 82.8179 76.0196 82.7969 76.1367ZM82.9082 75.4453C82.9263 75.3172 82.9414 75.1885 82.957 75.0596C82.9414 75.1885 82.9263 75.3172 82.9082 75.4453ZM82.9922 74.7715C83.0091 74.612 83.0221 74.4518 83.0352 74.291C83.0221 74.4518 83.0091 74.612 82.9922 74.7715ZM64.5713 74.7188C64.5729 74.7076 64.5757 74.6967 64.5771 74.6855L64.5781 74.6758C64.5762 74.6902 64.5733 74.7044 64.5713 74.7188ZM64.5703 73.3438C64.5866 73.4541 64.5993 73.5664 64.6074 73.6807C64.5993 73.566 64.5866 73.4534 64.5703 73.3428V73.3438ZM64.3135 72.4004V72.4014V72.4004ZM62.8594 70.6172C63.1526 70.8305 63.409 71.0617 63.6289 71.3105L63.3975 71.0674C63.1529 70.8301 62.8716 70.6108 62.5537 70.4092L62.8594 70.6172ZM61.0967 69.6807C61.2328 69.7401 61.364 69.7992 61.4902 69.8584L61.0967 69.6797C60.9604 69.6202 60.819 69.5608 60.6729 69.501L61.0967 69.6807ZM56.2168 68.043C57.1174 68.29 57.939 68.5352 58.6816 68.7783C59.053 68.8998 59.4045 69.0211 59.7363 69.1416L59.7373 69.1406C58.7417 68.779 57.5681 68.4135 56.2168 68.043ZM30.2686 57.2715C30.1263 57.1016 29.9888 56.928 29.8555 56.751C29.9292 56.8489 30.0036 56.9463 30.0801 57.042L30.2686 57.2715ZM29.4795 56.2256C29.5148 56.2777 29.5509 56.3293 29.5869 56.3809C29.5509 56.3293 29.5148 56.2777 29.4795 56.2256ZM29.293 55.9414C29.3281 55.9964 29.3635 56.0511 29.3994 56.1055C29.3635 56.0511 29.3281 55.9964 29.293 55.9414ZM29.0996 55.6289C29.1386 55.6937 29.1778 55.7583 29.2178 55.8223C29.1778 55.7583 29.1386 55.6937 29.0996 55.6289ZM28.7734 55.0547C28.8087 55.1205 28.8446 55.1859 28.8809 55.251C28.8446 55.1859 28.8087 55.1205 28.7734 55.0547ZM28.4316 54.374C28.5282 54.5811 28.6298 54.7844 28.7354 54.9844C28.6298 54.7844 28.5282 54.5811 28.4316 54.374ZM28.1709 53.7783C28.2073 53.8668 28.2443 53.9547 28.2822 54.042C28.2443 53.9547 28.2073 53.8668 28.1709 53.7783ZM27.6846 52.4111C27.6918 52.435 27.6997 52.4586 27.707 52.4824C27.6997 52.4586 27.6918 52.435 27.6846 52.4111ZM27.4932 51.7246C27.5038 51.7661 27.5154 51.8073 27.5264 51.8486C27.5154 51.8073 27.5038 51.7661 27.4932 51.7246ZM27.333 51.04C27.3385 51.0658 27.344 51.0915 27.3496 51.1172C27.344 51.0915 27.3385 51.0658 27.333 51.04ZM27.1953 50.3281C27.2016 50.3647 27.2083 50.4011 27.2148 50.4375C27.2083 50.4011 27.2016 50.3647 27.1953 50.3281ZM49.3193 49.8965C49.52 49.9734 49.7302 50.0496 49.9492 50.127C49.7202 50.046 49.501 49.9661 49.292 49.8857L49.3193 49.8965ZM27.0859 49.6201C27.0895 49.6462 27.0931 49.6722 27.0967 49.6982C27.0931 49.6722 27.0895 49.6462 27.0859 49.6201ZM26.9473 48.25C26.9647 48.4985 26.9856 48.7439 27.0107 48.9863C26.9856 48.744 26.9647 48.4985 26.9473 48.25ZM26.9014 47.3818C26.9106 47.6579 26.9251 47.9303 26.9434 48.1992C26.9251 47.9303 26.9106 47.6579 26.9014 47.3818ZM72.8008 43.8105C72.2117 43.5205 71.6239 43.2464 71.0381 42.9863C71.8193 43.3331 72.6035 43.7063 73.3906 44.1064L72.8008 43.8105ZM45.8291 43.7354C45.7777 43.8566 45.7337 43.9807 45.6934 44.1064C45.7337 43.9807 45.7777 43.8566 45.8291 43.7354ZM65.8105 41.0508C66.0024 41.1074 66.1945 41.1656 66.3867 41.2256C66.0021 41.1056 65.6185 40.9914 65.2354 40.8848L65.8105 41.0508ZM62.2861 40.1934C62.6951 40.2713 63.105 40.3567 63.5156 40.4502C63.1049 40.3567 62.6951 40.2713 62.2861 40.1934ZM58.3857 39.6816C58.5065 39.6901 58.6272 39.7011 58.748 39.7109C58.6272 39.7011 58.5065 39.6901 58.3857 39.6816ZM79.3457 30.2168C79.2899 30.1866 79.2348 30.1549 79.1787 30.125C79.2348 30.1549 79.2899 30.1866 79.3457 30.2168ZM78.8242 29.9404C78.7355 29.8945 78.647 29.848 78.5576 29.8027C78.647 29.848 78.7355 29.8945 78.8242 29.9404ZM36.9961 29.3975C36.7571 29.5378 36.5226 29.6814 36.292 29.8271C36.7531 29.5358 37.2309 29.255 37.7256 28.9854L36.9961 29.3975ZM78.2988 29.6748C78.1688 29.6104 78.0387 29.5455 77.9072 29.4824C78.0387 29.5455 78.1688 29.6104 78.2988 29.6748ZM77.6426 29.3574C77.5301 29.3046 77.4172 29.252 77.3037 29.2002C77.4172 29.252 77.5301 29.3046 77.6426 29.3574ZM76.9512 29.042C76.8484 28.9964 76.7452 28.951 76.6416 28.9062C76.7452 28.951 76.8484 28.9964 76.9512 29.042ZM76.3584 28.7852C76.2266 28.7295 76.0941 28.6745 75.9609 28.6201C76.0941 28.6745 76.2266 28.7295 76.3584 28.7852ZM75.6729 28.5039C75.5584 28.4583 75.4436 28.4129 75.3281 28.3682C75.4436 28.4129 75.5584 28.4583 75.6729 28.5039ZM74.9365 28.2188C74.8616 28.1907 74.7863 28.1634 74.7109 28.1357C74.7863 28.1635 74.8616 28.1907 74.9365 28.2188ZM74.2705 27.9756C74.1697 27.9399 74.0683 27.9052 73.9668 27.8701C74.0683 27.9052 74.1697 27.9399 74.2705 27.9756ZM43.5674 26.5996C42.9531 26.7774 42.3542 26.9703 41.7705 27.1777C42.3542 26.9703 42.9531 26.7774 43.5674 26.5996ZM73.5762 27.7363C73.4431 27.6919 73.3091 27.6488 73.1748 27.6055C73.3091 27.6488 73.4431 27.6919 73.5762 27.7363ZM72.9424 27.5303C72.7948 27.4836 72.6461 27.4389 72.4971 27.3936C72.6461 27.4389 72.7948 27.4836 72.9424 27.5303ZM72.1455 27.2871C72.0825 27.2685 72.0193 27.2508 71.9561 27.2324C72.0193 27.2508 72.0825 27.2685 72.1455 27.2871ZM51.6729 25.1777C50.9362 25.237 50.2149 25.3115 49.5088 25.4004C50.2149 25.3115 50.9362 25.237 51.6729 25.1777ZM29.6699 56.498C29.7126 56.5577 29.7561 56.6169 29.7998 56.6758C29.7561 56.6169 29.7126 56.5577 29.6699 56.498ZM30.2686 57.2715C30.3311 57.3461 30.3947 57.4199 30.459 57.4932C30.3947 57.4199 30.3311 57.3461 30.2686 57.2715ZM28.9375 55.3525C28.9838 55.434 29.0312 55.5145 29.0791 55.5947C29.0312 55.5145 28.9838 55.434 28.9375 55.3525ZM28.3184 54.1211C28.3558 54.2058 28.3927 54.2905 28.4316 54.374C28.3927 54.2905 28.3558 54.2058 28.3184 54.1211Z" fill="black"/>
<path d="M83.5254 72.3262C87.0375 72.3262 90.0448 73.4301 92.4023 75.7148C94.775 78.0143 95.9209 81.0089 95.9209 84.5371C95.9208 88.0209 94.731 90.9979 92.3262 93.3398L92.3271 93.3408C89.9795 95.6892 87.0011 96.8418 83.5254 96.8418C80.1023 96.8417 77.1392 95.6826 74.7432 93.3584C72.3262 91.0138 71.1309 88.0297 71.1309 84.5371C71.1309 81.0089 72.2767 78.0143 74.6494 75.7148L74.6582 75.7061L74.668 75.6973C77.074 73.4363 80.0656 72.3263 83.5254 72.3262Z" fill="#5464FF" stroke="white" stroke-width="3.34146"/>
</svg>
